<svg xmlns="http://www.w3.org/2000/svg" width="129.523" height="146.342" viewBox="0 0 129.523 146.342">
  <path id="searchImg-icon" d="M36.617,123.933A6.5,6.5,0,0,1,30.587,117l2.755-39.4A38.918,38.918,0,0,1,11.425,66.574,39,39,0,1,1,74.936,23.817,39.042,39.042,0,0,1,54.183,74.931a38.5,38.5,0,0,1-7.789,2.37l-2.838,40.6a6.5,6.5,0,0,1-6.477,6.046Q36.849,123.949,36.617,123.933ZM28.492,14.121A27.1,27.1,0,1,0,39,12,26.916,26.916,0,0,0,28.492,14.121Zm7.777,36.567A2.5,2.5,0,0,1,34.5,47.626l1.553-5.8-5.8-1.553a2.5,2.5,0,0,1,1.294-4.829L37.348,37l1.553-5.8a2.5,2.5,0,0,1,4.83,1.294l-1.553,5.8,5.795,1.553a2.5,2.5,0,1,1-1.294,4.829l-5.795-1.553-1.553,5.8a2.5,2.5,0,0,1-3.062,1.768Z" transform="translate(61.973 -0.001) rotate(30)" fill="#cccbc9"/>
</svg>
