<svg width="10" height="38" viewBox="0 0 10 38" fill="none" xmlns="http://www.w3.org/2000/svg">
<path d="M7.19808 25.5277L3.35436 28.726C2.65981 29.2999 2.52563 30.38 3.08601 31.1226V31.148L6.92973 27.9243C7.62429 27.3505 7.75846 26.2956 7.19808 25.5277Z" fill="#FF0000"/>
<path d="M3.83593 31.35C3.14137 31.9491 3.0072 33.0293 3.56758 33.7719C3.62283 33.8563 3.70175 33.9407 3.78068 33.9998C3.83593 33.6875 3.99378 33.4259 4.23056 33.1981L6.2353 31.5187C6.92985 30.9196 7.06402 29.8394 6.50365 29.0968L3.83593 31.35Z" fill="#FF0000"/>
<path d="M9.99991 21.3078C9.99991 20.1095 9.09225 19.139 7.97149 19.139H6.42453L7.06384 19.9914L6.42453 20.8437H7.94781C8.16092 20.8437 8.37402 21.0125 8.37402 21.2741C8.37402 21.4175 8.31877 21.5272 8.23984 21.6201L2.88073 26.1011C2.18617 26.7002 2.052 27.7804 2.61238 28.523L9.22643 22.9871C9.70788 22.6158 9.99991 21.9914 9.99991 21.3078Z" fill="#FF0000"/>
<path d="M0.820837 23.0209L3.19653 25.0209L4.50671 23.907L1.76006 21.6285C1.68114 21.5441 1.60221 21.4259 1.62589 21.2825C1.62589 21.0546 1.81531 20.8521 2.05209 20.8521H3.57537L2.93607 19.9998L3.57537 19.1475H2.02841C0.907656 19.1475 0 20.1179 0 21.3162C0.023678 21.9998 0.347277 22.6243 0.828729 23.0293L0.820837 23.0209Z" fill="#FF0000"/>
<path d="M5.00372 0L4.07239 1.7384V22.7089L5.00372 23.5021L5.96663 22.7089V1.7384L5.00372 0Z" fill="#2746F8"/>
<path d="M5.61961 35.9411L5.94321 32.574L4.5541 33.747C4.23051 34.0001 4.10422 34.4305 4.15158 34.8018L4.341 35.9748C4.10422 36.1774 3.93848 36.5149 3.93848 36.8609C3.93848 37.4854 4.41993 38.0001 5.00399 38.0001C5.58804 38.0001 6.06949 37.4854 6.06949 36.8609C6.06949 36.4896 5.88007 36.1436 5.61961 35.9495V35.9411Z" fill="#2746F8"/>
</svg>
